<svg width="370" height="154" viewBox="0 0 370 154" fill="none" xmlns="http://www.w3.org/2000/svg">
<g filter="url(#filter0_d)">
<ellipse cx="185" cy="73" rx="165" ry="57" fill="#0FA36B"/>
</g>
<path d="M78.9316 62.3857H68.043V92H60.7188V62.3857H49.9766V56.4531H78.9316V62.3857ZM95.8994 72.2002C94.9391 72.07 94.0928 72.0049 93.3604 72.0049C90.6911 72.0049 88.9414 72.9082 88.1113 74.7148V92H81.0557V65.584H87.7207L87.916 68.7334C89.332 66.3083 91.2933 65.0957 93.7998 65.0957C94.5811 65.0957 95.3135 65.2015 95.9971 65.4131L95.8994 72.2002ZM109.62 82.0146L114.503 65.584H122.071L111.451 96.1016L110.865 97.4932C109.286 100.944 106.682 102.669 103.053 102.669C102.027 102.669 100.986 102.514 99.9277 102.205V96.8584L101.002 96.8828C102.337 96.8828 103.329 96.6794 103.98 96.2725C104.648 95.8656 105.169 95.1901 105.543 94.2461L106.373 92.0732L97.1201 65.584H104.713L109.62 82.0146ZM148.658 79.0361C148.658 83.2679 147.755 86.5719 145.948 88.9482C144.142 91.3083 141.619 92.4883 138.38 92.4883C135.515 92.4883 133.229 91.3896 131.52 89.1924L131.202 92H124.854V54.5H131.91V67.9521C133.538 66.0479 135.678 65.0957 138.331 65.0957C141.554 65.0957 144.076 66.2839 145.899 68.6602C147.739 71.0202 148.658 74.3486 148.658 78.6455V79.0361ZM141.603 78.5234C141.603 75.8542 141.179 73.9092 140.333 72.6885C139.487 71.4515 138.225 70.833 136.549 70.833C134.303 70.833 132.757 71.7526 131.91 73.5918V84.0166C132.773 85.8721 134.335 86.7998 136.598 86.7998C138.876 86.7998 140.374 85.6768 141.09 83.4307C141.432 82.3564 141.603 80.7207 141.603 78.5234ZM165.187 92.4883C161.313 92.4883 158.155 91.3001 155.714 88.9238C153.289 86.5475 152.076 83.3818 152.076 79.4268V78.7432C152.076 76.0902 152.589 73.722 153.614 71.6387C154.64 69.5391 156.088 67.9277 157.96 66.8047C159.848 65.6654 161.996 65.0957 164.405 65.0957C168.019 65.0957 170.859 66.235 172.926 68.5137C175.009 70.7923 176.051 74.0231 176.051 78.2061V81.0869H159.229C159.457 82.8122 160.141 84.1956 161.28 85.2373C162.436 86.279 163.893 86.7998 165.65 86.7998C168.368 86.7998 170.493 85.8151 172.022 83.8457L175.489 87.7275C174.431 89.2249 172.999 90.3968 171.192 91.2432C169.386 92.0732 167.384 92.4883 165.187 92.4883ZM164.381 70.8086C162.981 70.8086 161.842 71.2806 160.963 72.2246C160.1 73.1686 159.547 74.5195 159.303 76.2773H169.117V75.7158C169.085 74.1533 168.661 72.9489 167.848 72.1025C167.034 71.2399 165.878 70.8086 164.381 70.8086ZM194.923 72.2002C193.963 72.07 193.116 72.0049 192.384 72.0049C189.715 72.0049 187.965 72.9082 187.135 74.7148V92H180.079V65.584H186.744L186.939 68.7334C188.355 66.3083 190.317 65.0957 192.823 65.0957C193.604 65.0957 194.337 65.2015 195.021 65.4131L194.923 72.2002ZM225.562 62.3857H214.674V92H207.35V62.3857H196.607V56.4531H225.562V62.3857ZM242.53 72.2002C241.57 72.07 240.724 72.0049 239.991 72.0049C237.322 72.0049 235.572 72.9082 234.742 74.7148V92H227.687V65.584H234.352L234.547 68.7334C235.963 66.3083 237.924 65.0957 240.431 65.0957C241.212 65.0957 241.944 65.2015 242.628 65.4131L242.53 72.2002ZM253.395 92H246.314V65.584H253.395V92ZM245.899 58.748C245.899 57.6901 246.249 56.8193 246.949 56.1357C247.665 55.4521 248.634 55.1104 249.854 55.1104C251.059 55.1104 252.019 55.4521 252.735 56.1357C253.451 56.8193 253.81 57.6901 253.81 58.748C253.81 59.8223 253.443 60.7012 252.711 61.3848C251.995 62.0684 251.043 62.4102 249.854 62.4102C248.666 62.4102 247.706 62.0684 246.974 61.3848C246.257 60.7012 245.899 59.8223 245.899 58.748ZM269.117 83.3818L274.024 65.584H281.397L272.486 92H265.748L256.837 65.584H264.21L269.117 83.3818ZM291.969 92H284.889V65.584H291.969V92ZM284.474 58.748C284.474 57.6901 284.824 56.8193 285.523 56.1357C286.24 55.4521 287.208 55.1104 288.429 55.1104C289.633 55.1104 290.593 55.4521 291.31 56.1357C292.026 56.8193 292.384 57.6901 292.384 58.748C292.384 59.8223 292.018 60.7012 291.285 61.3848C290.569 62.0684 289.617 62.4102 288.429 62.4102C287.241 62.4102 286.28 62.0684 285.548 61.3848C284.832 60.7012 284.474 59.8223 284.474 58.748ZM313.111 92C312.786 91.3652 312.55 90.5758 312.403 89.6318C310.694 91.5361 308.473 92.4883 305.738 92.4883C303.15 92.4883 301.002 91.7396 299.293 90.2422C297.6 88.7448 296.754 86.8568 296.754 84.5781C296.754 81.7786 297.787 79.6302 299.854 78.1328C301.938 76.6354 304.941 75.8786 308.863 75.8623H312.11V74.3486C312.11 73.1279 311.793 72.1514 311.158 71.4189C310.54 70.6865 309.555 70.3203 308.204 70.3203C307.016 70.3203 306.08 70.6051 305.396 71.1748C304.729 71.7445 304.396 72.5257 304.396 73.5186H297.34C297.34 71.9886 297.812 70.5726 298.756 69.2705C299.7 67.9684 301.035 66.9512 302.76 66.2188C304.485 65.4701 306.422 65.0957 308.57 65.0957C311.826 65.0957 314.405 65.9176 316.31 67.5615C318.23 69.1891 319.19 71.484 319.19 74.4463V85.8965C319.207 88.403 319.557 90.2992 320.24 91.585V92H313.111ZM307.276 87.0928C308.318 87.0928 309.278 86.8649 310.157 86.4092C311.036 85.9372 311.687 85.3105 312.11 84.5293V79.9883H309.474C305.942 79.9883 304.062 81.209 303.834 83.6504L303.81 84.0654C303.81 84.9443 304.119 85.6686 304.737 86.2383C305.356 86.8079 306.202 87.0928 307.276 87.0928Z" fill="white"/>
<defs>
<filter id="filter0_d" x="0" y="0" width="370" height="154" filterUnits="userSpaceOnUse" color-interpolation-filters="sRGB">
<feFlood flood-opacity="0" result="BackgroundImageFix"/>
<feColorMatrix in="SourceAlpha" type="matrix" values="0 0 0 0 0 0 0 0 0 0 0 0 0 0 0 0 0 0 127 0"/>
<feOffset dy="4"/>
<feGaussianBlur stdDeviation="10"/>
<feColorMatrix type="matrix" values="0 0 0 0 0 0 0 0 0 0 0 0 0 0 0 0 0 0 0.25 0"/>
<feBlend mode="normal" in2="BackgroundImageFix" result="effect1_dropShadow"/>
<feBlend mode="normal" in="SourceGraphic" in2="effect1_dropShadow" result="shape"/>
</filter>
</defs>
</svg>
