<?xml version="1.0" encoding="UTF-8" standalone="no"?>
<svg
   xmlns:dc="http://purl.org/dc/elements/1.1/"
   xmlns:cc="http://creativecommons.org/ns#"
   xmlns:rdf="http://www.w3.org/1999/02/22-rdf-syntax-ns#"
   xmlns:svg="http://www.w3.org/2000/svg"
   xmlns="http://www.w3.org/2000/svg"
   xmlns:sodipodi="http://sodipodi.sourceforge.net/DTD/sodipodi-0.dtd"
   xmlns:inkscape="http://www.inkscape.org/namespaces/inkscape"
   viewBox="0 0 74 74"
   width="512"
   height="512"
   version="1.1"
   id="svg70"
   sodipodi:docname="setting.svg"
   inkscape:version="0.92.5 (2060ec1f9f, 2020-04-08)">
  <metadata
     id="metadata76">
    <rdf:RDF>
      <cc:Work
         rdf:about="">
        <dc:format>image/svg+xml</dc:format>
        <dc:type
           rdf:resource="http://purl.org/dc/dcmitype/StillImage" />
      </cc:Work>
    </rdf:RDF>
  </metadata>
  <defs
     id="defs74" />
  <sodipodi:namedview
     pagecolor="#ffffff"
     bordercolor="#666666"
     borderopacity="1"
     objecttolerance="10"
     gridtolerance="10"
     guidetolerance="10"
     inkscape:pageopacity="0"
     inkscape:pageshadow="2"
     inkscape:window-width="1858"
     inkscape:window-height="1016"
     id="namedview72"
     showgrid="false"
     inkscape:zoom="0.83593752"
     inkscape:cx="74.198349"
     inkscape:cy="141.04619"
     inkscape:window-x="62"
     inkscape:window-y="27"
     inkscape:window-maximized="1"
     inkscape:current-layer="layer1" />
  <rect
     style="opacity:0;fill:#08bdbd;fill-opacity:1;stroke:none;stroke-width:0.2548086;stroke-miterlimit:4;stroke-dasharray:none;stroke-opacity:1"
     id="rect886"
     width="91.872879"
     height="106.92373"
     x="-111.94068"
     y="-39.194916" />
  <rect
     style="opacity:0;fill:#08bdbd;fill-opacity:1;stroke:none;stroke-width:0.2548086;stroke-miterlimit:4;stroke-dasharray:none;stroke-opacity:1"
     id="rect896"
     width="45.152542"
     height="54.559322"
     x="-89.677963"
     y="10.974577" />
  <rect
     style="opacity:0;fill:#08bdbd;fill-opacity:1;stroke:#000000;stroke-width:0.2548086;stroke-miterlimit:4;stroke-dasharray:none;stroke-opacity:1"
     id="rect898"
     width="50.169495"
     height="55.18644"
     x="-110.05932"
     y="1.5677967" />
  <g
     inkscape:groupmode="layer"
     id="layer1"
     inkscape:label="Layer 1">
    <path
       style="opacity:1;fill:#ffffff;fill-opacity:1;stroke:#ffffff;stroke-width:2.10900927;stroke-miterlimit:4;stroke-dasharray:none;stroke-opacity:1"
       d="m 230.14468,462.95155 c -3.85864,-15.62617 -7.78117,-29.2957 -8.71673,-30.37672 -0.93556,-1.08104 -5.30333,-2.86412 -9.70616,-3.96241 -11.3244,-2.82488 -27.96668,-9.58113 -38.75316,-15.73257 -5.0684,-2.89047 -10.72074,-5.24133 -12.56074,-5.22412 -2.1346,0.02 -12.22067,5.42594 -27.86655,14.93605 l -24.52109,14.90479 -12.862087,-12.8222 c -7.074147,-7.05222 -12.862086,-13.1952 -12.862086,-13.65108 0,-0.45589 6.728529,-12.03891 14.952286,-25.74004 8.223757,-13.70113 14.952727,-25.58775 14.953267,-26.41471 5.5e-4,-0.82698 -3.20185,-7.55595 -7.11644,-14.95327 -6.418913,-12.12974 -15.611543,-36.0857 -15.611543,-40.68364 0,-5.12879 -3.838009,-6.8987 -28.115116,-12.96531 -13.157247,-3.28788 -25.940959,-6.50976 -28.408248,-7.15976 l -4.485982,-1.18181 v -18.41534 c 0,-16.49311 0.218519,-18.48322 2.093458,-19.06579 1.151402,-0.35775 13.936449,-3.64208 28.411215,-7.2985 26.582981,-6.71505 30.504673,-8.44122 30.504673,-13.42692 0,-4.59794 9.19263,-28.55391 15.611543,-40.68364 3.91459,-7.39733 7.11743,-14.21604 7.11743,-15.15268 0,-0.93665 -6.72897,-12.83885 -14.953272,-26.44936 -8.224299,-13.6105 -14.953271,-25.10378 -14.953271,-25.54061 0,-0.43684 5.791749,-6.56804 12.870552,-13.62489 l 12.870551,-12.830646 24.90041,14.944506 c 13.69522,8.21947 26.17744,14.9445 27.73826,14.9445 1.56081,0 6.07277,-1.89594 10.02657,-4.2132 12.59666,-7.3827 33.07587,-15.492623 45.27442,-17.929005 2.13749,-0.426917 4.64714,-1.862388 5.57699,-3.189935 0.92986,-1.327545 4.82173,-15.012023 8.6486,-30.409949 l 6.95798,-27.99623 h 18.59361 18.59362 l 7.00036,28.411215 c 4.08825,16.592296 7.80982,29.211963 8.94619,30.336114 1.0702,1.058694 5.44488,2.863441 9.72151,4.010549 12.47182,3.345271 28.58691,9.883011 38.55196,15.640141 5.08395,2.93716 10.56179,5.3403 12.17296,5.3403 1.62325,0 14.03197,-6.66342 27.82983,-14.9445 l 24.90042,-14.944506 12.87054,12.830646 c 7.07881,7.05685 12.87055,13.20364 12.87055,13.65952 0,0.45588 -6.72852,12.0389 -14.95229,25.74003 -8.22374,13.70113 -14.95272,25.53951 -14.95327,26.30749 -5.3e-4,0.768 3.2009,7.49698 7.11432,14.95328 6.4353,12.26134 15.61367,36.23991 15.61367,40.79086 0,4.95366 3.94663,6.72577 28.71028,12.89156 13.48786,3.35826 26.2729,6.64655 28.41122,7.30729 l 3.88785,1.20135 v 18.40318 18.40317 l -4.48598,1.18181 c -2.46729,0.65 -15.251,3.87188 -28.40825,7.15976 -24.2771,6.06661 -28.11512,7.83652 -28.11512,12.96531 0,4.59794 -9.19262,28.5539 -15.61155,40.68364 -3.91457,7.39732 -7.11697,14.12629 -7.11644,14.95327 5.5e-4,0.82696 6.72953,12.71358 14.95327,26.41471 8.22377,13.70113 14.95229,25.28415 14.95229,25.74004 0,0.45588 -5.80171,6.6126 -12.89268,13.68158 l -12.8927,12.85272 -24.72598,-14.96657 c -14.83456,-8.97933 -25.97008,-14.96658 -27.83594,-14.96658 -1.71047,0 -7.25685,2.36494 -12.32525,5.25541 -10.78648,6.15144 -27.42876,12.90769 -38.75316,15.73257 -4.40283,1.09829 -8.7706,2.88137 -9.70616,3.96241 -0.93556,1.08102 -4.85809,14.75055 -8.71673,30.37672 l -7.01572,28.41121 h -18.59362 -18.59361 z m 50.43831,-89.39521 c 20.05323,-4.81026 38.48725,-14.89912 53.34337,-29.1946 14.36903,-13.82677 24.13592,-29.94663 30.31715,-50.03725 2.97609,-9.6731 3.23455,-12.13807 3.23455,-30.84958 0,-18.7115 -0.25846,-21.17647 -3.23455,-30.84958 -3.84734,-12.50484 -9.96363,-25.08877 -16.98457,-34.94481 -5.85642,-8.22126 -20.18737,-22.36284 -28.10305,-27.73169 -19.66043,-13.33479 -46.7175,-20.71022 -69.97799,-19.07517 -48.55387,3.41299 -87.44805,34.61335 -101.90027,81.74294 -2.92931,9.55265 -3.23331,12.34004 -3.30029,30.26018 -0.0792,21.1867 0.86968,26.75888 7.29833,42.85858 10.10134,25.29747 32.50478,48.89958 56.923,59.96864 9.3723,4.24856 22.06738,8.11889 31.40582,9.57462 9.42503,1.46922 31.5502,0.53933 40.9785,-1.72228 z"
       id="path988"
       inkscape:connector-curvature="0"
       transform="scale(0.14453125)" />
  </g>
</svg>
